
      <svg data-logo="logo" xmlns="http://www.w3.org/2000/svg" viewBox="0 0 268.5500030517578 42.1435546875">
        <g id="logogram" transform="
    translate(0, 1.07177734375)
    rotate(0 21 20)
    
  "><path d="M28.7089 33.1053L1.9434 14.6424C-0.768963 12.7715 0.15306 8.87601 3.53531 7.95996L31.9823 0.239132C32.5849 0.0216955 33.2306 -0.0488885 33.866 0.0332432C34.5013 0.115375 35.1079 0.34785 35.6355 0.711378C36.1629 1.07491 36.5961 1.559 36.899 2.12348C37.2018 2.68795 37.3658 3.31654 37.3771 3.95706L35.6912 30.1393C35.4913 33.247 31.4213 34.9762 28.7089 33.1053Z" fill="#E9327C"/><path d="M20.2197 37.6632L4.45132 6.82618C4.09087 6.12072 3.93226 5.32941 3.99297 4.53953C4.05367 3.74965 4.33135 2.99187 4.79536 2.34978C5.25939 1.70769 5.89172 1.20622 6.62264 0.900668C7.35356 0.595117 8.15466 0.497365 8.93761 0.618198L38.1604 5.12834C38.8331 5.23219 39.4717 5.49425 40.0236 5.89298C40.5753 6.29172 41.0245 6.81572 41.3344 7.42191C41.6441 8.0281 41.8057 8.69917 41.8055 9.37994C41.8054 10.0607 41.6437 10.7317 41.3338 11.3378L27.8719 37.6647C27.5104 38.3681 26.962 38.9583 26.2869 39.3703C25.6118 39.7823 24.8363 40.0002 24.0454 40C23.2545 39.9999 22.479 39.7817 21.804 39.3695C21.1291 38.9571 20.5809 38.3668 20.2197 37.6632Z" fill="#1DACE3"/><path d="M37.3055 4.9955L22.7382 2.74713L4.85269 7.60342L11.9917 21.5695L28.7089 33.1053C29.0777 33.357 29.4834 33.5497 29.9114 33.6767L36.2612 21.2592L37.3055 4.9955Z" fill="#001A49"/></g>
        <g id="logotype" transform="translate(48, 0.5)"><path fill="#111111" d="M17.38 34L12.17 34L6.53 14.89L11.91 14.89L13.57 21.95Q14.00 23.85 14.49 26.08Q14.99 28.31 15.40 31.01L15.40 31.01L14.82 31.01Q15.26 28.38 15.79 26.14Q16.32 23.90 16.78 21.95L16.78 21.95L18.53 14.89L23.24 14.89L24.94 21.95Q25.38 23.88 25.91 26.11Q26.44 28.34 26.90 31.01L26.90 31.01L26.32 31.01Q26.73 28.36 27.20 26.13Q27.67 23.90 28.11 21.95L28.11 21.95L29.77 14.89L35.22 14.89L29.55 34L24.34 34L22.22 26.63Q21.91 25.52 21.60 24.18Q21.30 22.84 21.00 21.45Q20.71 20.05 20.41 18.84L20.41 18.84L21.31 18.84Q21.02 20.05 20.72 21.45Q20.42 22.84 20.12 24.19Q19.81 25.54 19.50 26.63L19.50 26.63L17.38 34ZM40.79 22.94L40.79 22.94L40.79 34L35.67 34L35.67 8.54L40.69 8.54L40.69 19.66L40.28 19.66Q41.03 17.27 42.56 15.96Q44.09 14.65 46.52 14.65L46.52 14.65Q48.50 14.65 49.98 15.52Q51.46 16.38 52.27 18.00Q53.08 19.61 53.08 21.85L53.08 21.85L53.08 34L47.95 34L47.95 22.74Q47.95 20.96 47.04 19.95Q46.12 18.94 44.50 18.94L44.50 18.94Q43.42 18.94 42.58 19.41Q41.73 19.88 41.26 20.77Q40.79 21.66 40.79 22.94ZM60.31 34L55.18 34L55.18 14.89L60.31 14.89L60.31 34ZM57.74 12.40L57.74 12.40Q56.58 12.40 55.76 11.63Q54.94 10.86 54.94 9.77L54.94 9.77Q54.94 8.67 55.76 7.90Q56.58 7.13 57.74 7.13L57.74 7.13Q58.91 7.13 59.73 7.90Q60.56 8.66 60.56 9.77L60.56 9.77Q60.56 10.86 59.73 11.63Q58.91 12.40 57.74 12.40ZM60.54 14.89L71.88 14.89L71.88 18.81L60.54 18.81L60.54 14.89ZM63.18 28.86L63.18 10.35L68.30 10.35L68.30 28.41Q68.30 29.32 68.71 29.75Q69.11 30.19 70.05 30.19L70.05 30.19Q70.34 30.19 70.87 30.11Q71.40 30.04 71.67 29.97L71.67 29.97L72.40 33.81Q71.55 34.07 70.70 34.17Q69.86 34.27 69.09 34.27L69.09 34.27Q66.22 34.27 64.70 32.87Q63.18 31.47 63.18 28.86L63.18 28.86ZM81.56 34.38L81.56 34.38Q78.64 34.38 76.52 33.18Q74.40 31.98 73.27 29.78Q72.13 27.57 72.13 24.55L72.13 24.55Q72.13 21.59 73.26 19.37Q74.39 17.15 76.45 15.90Q78.52 14.65 81.31 14.65L81.31 14.65Q83.19 14.65 84.81 15.25Q86.43 15.85 87.66 17.06Q88.89 18.26 89.59 20.07Q90.28 21.88 90.28 24.34L90.28 24.34L90.28 25.78L74.23 25.78L74.23 22.57L87.77 22.57L85.37 23.42Q85.37 21.93 84.92 20.83Q84.47 19.73 83.57 19.12Q82.67 18.52 81.34 18.52L81.34 18.52Q80.03 18.52 79.09 19.13Q78.16 19.75 77.68 20.80Q77.21 21.85 77.21 23.20L77.21 23.20L77.21 25.47Q77.21 27.13 77.76 28.26Q78.32 29.39 79.32 29.95Q80.32 30.51 81.65 30.51L81.65 30.51Q82.55 30.51 83.29 30.26Q84.02 30.00 84.55 29.50Q85.07 28.99 85.34 28.26L85.34 28.26L89.99 29.13Q89.53 30.70 88.38 31.89Q87.24 33.08 85.52 33.73Q83.80 34.38 81.56 34.38ZM99.10 34.38L99.10 34.38Q96.79 34.38 95.01 33.72Q93.23 33.06 92.11 31.80Q90.98 30.55 90.65 28.77L90.65 28.77L95.42 27.95Q95.80 29.28 96.74 29.95Q97.68 30.62 99.25 30.62L99.25 30.62Q100.70 30.62 101.56 30.06Q102.41 29.51 102.41 28.65L102.41 28.65Q102.41 27.90 101.80 27.42Q101.20 26.94 99.95 26.69L99.95 26.69L96.65 26.00Q93.88 25.44 92.52 24.08Q91.15 22.72 91.15 20.58L91.15 20.58Q91.15 18.74 92.16 17.41Q93.17 16.09 94.96 15.37Q96.75 14.65 99.18 14.65L99.18 14.65Q101.44 14.65 103.09 15.28Q104.75 15.90 105.78 17.05Q106.80 18.19 107.14 19.75L107.14 19.75L102.60 20.55Q102.31 19.58 101.48 18.95Q100.65 18.33 99.25 18.33L99.25 18.33Q97.98 18.33 97.13 18.86Q96.28 19.39 96.28 20.26L96.28 20.26Q96.28 20.99 96.83 21.49Q97.39 21.99 98.74 22.26L98.74 22.26L102.17 22.94Q104.94 23.51 106.29 24.78Q107.64 26.05 107.64 28.10L107.64 28.10Q107.64 29.98 106.55 31.39Q105.45 32.80 103.53 33.59Q101.61 34.38 99.10 34.38ZM113.96 41.14L108.83 41.14L108.83 14.89L113.88 14.89L113.88 18.11L114.12 18.11Q114.47 17.35 115.13 16.55Q115.79 15.75 116.87 15.20Q117.94 14.65 119.57 14.65L119.57 14.65Q121.69 14.65 123.45 15.75Q125.21 16.84 126.26 19.03Q127.31 21.22 127.31 24.48L127.31 24.48Q127.31 27.66 126.28 29.86Q125.26 32.05 123.50 33.19Q121.74 34.32 119.53 34.32L119.53 34.32Q117.98 34.32 116.90 33.79Q115.82 33.27 115.15 32.49Q114.47 31.71 114.12 30.94L114.12 30.94L113.96 30.94L113.96 41.14ZM117.96 30.21L117.96 30.21Q119.29 30.21 120.21 29.47Q121.12 28.74 121.59 27.44Q122.06 26.14 122.06 24.46L122.06 24.46Q122.06 22.79 121.59 21.51Q121.12 20.23 120.22 19.49Q119.31 18.76 117.96 18.76L117.96 18.76Q116.64 18.76 115.72 19.47Q114.80 20.17 114.32 21.45Q113.84 22.72 113.84 24.46L113.84 24.46Q113.84 26.19 114.33 27.48Q114.82 28.77 115.74 29.49Q116.66 30.21 117.96 30.21ZM133.95 34.38L133.95 34.38Q132.14 34.38 130.70 33.74Q129.25 33.09 128.43 31.82Q127.60 30.55 127.60 28.65L127.60 28.65Q127.60 27.06 128.19 25.98Q128.78 24.91 129.79 24.26Q130.81 23.61 132.10 23.27Q133.39 22.93 134.81 22.79L134.81 22.79Q136.47 22.62 137.48 22.47Q138.50 22.33 138.97 22.01Q139.44 21.70 139.44 21.08L139.44 21.08L139.44 20.99Q139.44 20.17 139.10 19.61Q138.76 19.05 138.09 18.75Q137.42 18.45 136.45 18.45L136.45 18.45Q135.46 18.45 134.72 18.75Q133.99 19.05 133.53 19.54Q133.07 20.04 132.84 20.65L132.84 20.65L128.14 19.87Q128.64 18.21 129.78 17.05Q130.93 15.88 132.63 15.27Q134.33 14.65 136.45 14.65L136.45 14.65Q138.00 14.65 139.46 15.02Q140.91 15.39 142.06 16.16Q143.22 16.93 143.89 18.16Q144.57 19.39 144.57 21.13L144.57 21.13L144.57 34L139.71 34L139.71 31.35L139.54 31.35Q139.08 32.24 138.31 32.91Q137.54 33.59 136.46 33.98Q135.37 34.38 133.95 34.38ZM135.41 30.77L135.41 30.77Q136.62 30.77 137.53 30.29Q138.45 29.81 138.96 28.99Q139.47 28.17 139.47 27.16L139.47 27.16L139.47 25.10Q139.25 25.27 138.79 25.40Q138.33 25.54 137.77 25.64Q137.20 25.75 136.65 25.83Q136.11 25.92 135.68 25.97L135.68 25.97Q134.74 26.10 134.02 26.41Q133.30 26.72 132.91 27.22Q132.52 27.73 132.52 28.51L132.52 28.51Q132.52 29.25 132.89 29.75Q133.27 30.26 133.91 30.51Q134.55 30.77 135.41 30.77ZM155.21 34.38L155.21 34.38Q152.32 34.38 150.23 33.14Q148.14 31.90 147.00 29.68Q145.86 27.47 145.86 24.53L145.86 24.53Q145.86 21.56 147.00 19.35Q148.14 17.13 150.23 15.89Q152.32 14.65 155.21 14.65L155.21 14.65Q156.90 14.65 158.34 15.10Q159.78 15.54 160.89 16.36Q162.00 17.18 162.71 18.36Q163.43 19.54 163.71 21.01L163.71 21.01L158.94 21.90Q158.78 21.15 158.46 20.56Q158.13 19.97 157.67 19.55Q157.21 19.13 156.60 18.91Q156.00 18.69 155.26 18.69L155.26 18.69Q153.90 18.69 152.96 19.42Q152.03 20.16 151.56 21.47Q151.09 22.79 151.09 24.52L151.09 24.52Q151.09 26.22 151.56 27.53Q152.03 28.84 152.96 29.59Q153.90 30.34 155.26 30.34L155.26 30.34Q156.00 30.34 156.61 30.11Q157.23 29.88 157.71 29.45Q158.19 29.01 158.51 28.39Q158.84 27.78 158.97 27.01L158.97 27.01L163.74 27.88Q163.47 29.40 162.75 30.59Q162.03 31.78 160.92 32.63Q159.81 33.49 158.37 33.93Q156.92 34.38 155.21 34.38ZM173.62 34.38L173.62 34.38Q170.69 34.38 168.57 33.18Q166.46 31.98 165.32 29.78Q164.18 27.57 164.18 24.55L164.18 24.55Q164.18 21.59 165.31 19.37Q166.44 17.15 168.51 15.90Q170.57 14.65 173.36 14.65L173.36 14.65Q175.24 14.65 176.86 15.25Q178.49 15.85 179.72 17.06Q180.95 18.26 181.64 20.07Q182.33 21.88 182.33 24.34L182.33 24.34L182.33 25.78L166.28 25.78L166.28 22.57L179.82 22.57L177.43 23.42Q177.43 21.93 176.97 20.83Q176.52 19.73 175.62 19.12Q174.73 18.52 173.39 18.52L173.39 18.52Q172.08 18.52 171.15 19.13Q170.21 19.75 169.74 20.80Q169.26 21.85 169.26 23.20L169.26 23.20L169.26 25.47Q169.26 27.13 169.81 28.26Q170.37 29.39 171.37 29.95Q172.37 30.51 173.70 30.51L173.70 30.51Q174.61 30.51 175.34 30.26Q176.08 30.00 176.60 29.50Q177.12 28.99 177.39 28.26L177.39 28.26L182.04 29.13Q181.58 30.70 180.43 31.89Q179.29 33.08 177.57 33.73Q175.85 34.38 173.62 34.38ZM187.22 34.32L187.22 34.32Q185.97 34.32 185.12 33.48Q184.26 32.63 184.26 31.39L184.26 31.39Q184.26 30.14 185.12 29.30Q185.97 28.46 187.22 28.46L187.22 28.46Q188.46 28.46 189.32 29.30Q190.17 30.14 190.17 31.39L190.17 31.39Q190.17 32.63 189.32 33.48Q188.46 34.32 187.22 34.32ZM198.10 34L192.97 34L192.97 14.89L198.10 14.89L198.10 34ZM195.54 12.40L195.54 12.40Q194.38 12.40 193.56 11.63Q192.74 10.86 192.74 9.77L192.74 9.77Q192.74 8.67 193.56 7.90Q194.38 7.13 195.54 7.13L195.54 7.13Q196.70 7.13 197.53 7.90Q198.36 8.66 198.36 9.77L198.36 9.77Q198.36 10.86 197.53 11.63Q196.70 12.40 195.54 12.40ZM208.73 34.38L208.73 34.38Q205.86 34.38 203.76 33.14Q201.65 31.90 200.52 29.68Q199.38 27.47 199.38 24.53L199.38 24.53Q199.38 21.56 200.52 19.35Q201.65 17.13 203.76 15.89Q205.86 14.65 208.73 14.65L208.73 14.65Q211.62 14.65 213.71 15.89Q215.80 17.13 216.94 19.35Q218.08 21.56 218.08 24.53L218.08 24.53Q218.08 27.47 216.94 29.68Q215.80 31.90 213.71 33.14Q211.62 34.38 208.73 34.38ZM208.73 30.34L208.73 30.34Q210.10 30.34 211.02 29.58Q211.94 28.82 212.40 27.50Q212.87 26.17 212.87 24.52L212.87 24.52Q212.87 22.82 212.40 21.51Q211.94 20.19 211.02 19.44Q210.10 18.69 208.73 18.69L208.73 18.69Q207.36 18.69 206.45 19.44Q205.53 20.19 205.07 21.51Q204.61 22.82 204.61 24.52L204.61 24.52Q204.61 26.17 205.07 27.50Q205.53 28.82 206.45 29.58Q207.36 30.34 208.73 30.34Z"/></g>
        
      </svg>
    